<?xml version="1.0" encoding="utf-8"?>
<!-- Generator: Adobe Illustrator 26.1.0, SVG Export Plug-In . SVG Version: 6.00 Build 0)  -->
<svg version="1.1" id="Layer_1" xmlns="http://www.w3.org/2000/svg" xmlns:xlink="http://www.w3.org/1999/xlink" x="0px" y="0px"
	 viewBox="0 0 360 360" style="enable-background:new 0 0 360 360;" xml:space="preserve">
<style type="text/css">
	.st0{fill:#FFFFFF;}
	.st1{stroke:#000000;stroke-width:8;stroke-linecap:round;stroke-miterlimit:10;}
	.st2{fill:none;}
	.st3{fill:none;stroke:#000000;stroke-width:3;stroke-miterlimit:10;}
	.st4{stroke:#000000;stroke-miterlimit:10;}
	.st5{fill:none;stroke:#000000;stroke-width:8;stroke-linecap:round;stroke-miterlimit:10;}
	.st6{stroke:#000000;stroke-width:0.5;stroke-linecap:round;stroke-miterlimit:10;}
</style>
<path class="st0" d="M295.5,309.1H64.8c-26,0-47.1-21.1-47.1-47.1V89.4c0-26,21.1-47.1,47.1-47.1h230.7c26,0,47.1,21.1,47.1,47.1
	V262C342.6,288,321.5,309.1,295.5,309.1z"/>
<g id="help_lines">
</g>
<g id="Layer_1_00000136394709848420566800000017477039998230219648_">
	<path class="st1" d="M480.5,274.1"/>
	<path class="st1" d="M438.9,281.1"/>
</g>
<g id="Layer_2_00000151533567927540245140000009267424316411943344_">
</g>
<g id="Layer_5">
	<g>
		<path class="st2" d="M310.7,214.1"/>
		<path class="st2" d="M159.6,224.1"/>
		<path class="st2" d="M170.3,141.5"/>
		<polyline class="st3" points="37.2,180.1 171.7,79.8 332.5,208.6 		"/>
		<polyline class="st3" points="134.5,268.1 171.7,79.8 171.7,79.8 		"/>
		<polygon class="st4" points="163.8,92.7 130.2,256.4 45.3,180 		"/>
		<line class="st5" x1="166.6" y1="225.2" x2="280.8" y2="191.5"/>
		<line class="st5" x1="170.1" y1="185.4" x2="247.5" y2="162.6"/>
		<path class="st6" d="M264,171.4"/>
		<path class="st6" d="M287,191.5"/>
		<path class="st6" d="M217.1,129.5"/>
		<line class="st5" x1="174.8" y1="144.2" x2="213.6" y2="133.3"/>
		<polyline class="st3" points="37.2,180.1 134.5,268.1 332.5,208.6 		"/>
		<g>
			<polygon class="st3" points="37.2,180.1 171.7,79.8 332.5,208.6 134.5,268.1 			"/>
		</g>
	</g>
</g>
<g id="Layer_3">
</g>
</svg>
