<?xml version="1.0" encoding="utf-8"?>
<!-- Generator: Adobe Illustrator 26.1.0, SVG Export Plug-In . SVG Version: 6.00 Build 0)  -->
<svg version="1.1" id="Layer_1" xmlns="http://www.w3.org/2000/svg" xmlns:xlink="http://www.w3.org/1999/xlink" x="0px" y="0px"
	 viewBox="0 0 360 360" style="enable-background:new 0 0 360 360;" xml:space="preserve">
<style type="text/css">
	.st0{stroke:#000000;stroke-width:8;stroke-linecap:round;stroke-miterlimit:10;}
	.st1{fill:#FFFFFF;}
	.st2{fill:#FFFFFF;stroke:#FFFFFF;stroke-width:3;stroke-miterlimit:10;}
	.st3{fill:#FFFFFF;stroke:#FFFFFF;stroke-miterlimit:10;}
	.st4{fill:#FFFFFF;stroke:#FFFFFF;stroke-width:8;stroke-linecap:round;stroke-miterlimit:10;}
	.st5{fill:#FFFFFF;stroke:#FFFFFF;stroke-width:0.5;stroke-linecap:round;stroke-miterlimit:10;}
</style>
<g id="help_lines">
</g>
<g id="Layer_1_00000109010666994965835690000000344203307923512492_">
	<path class="st0" d="M480.5,274.1"/>
	<path class="st0" d="M438.9,281.1"/>
</g>
<g id="Layer_2_00000067919673326341731080000008894919294922939789_">
</g>
<g id="Layer_5">
	<g>
		<path class="st1" d="M310.7,214.1"/>
		<path class="st1" d="M159.6,224.1"/>
		<path class="st1" d="M170.3,141.5"/>
		<polyline class="st2" points="37.2,180.1 171.7,79.8 332.5,208.6 		"/>
		<polyline class="st2" points="134.5,268.1 171.7,79.8 171.7,79.8 		"/>
		<polygon class="st3" points="163.8,92.7 130.2,256.4 45.3,180 		"/>
		<line class="st4" x1="166.6" y1="225.2" x2="280.8" y2="191.5"/>
		<line class="st4" x1="170.1" y1="185.4" x2="247.5" y2="162.6"/>
		<path class="st5" d="M264,171.4"/>
		<path class="st5" d="M287,191.5"/>
		<path class="st5" d="M217.1,129.5"/>
		<line class="st4" x1="174.8" y1="144.2" x2="213.6" y2="133.3"/>
		<polyline class="st2" points="37.2,180.1 134.5,268.1 332.5,208.6 		"/>
		<g>
			<polygon class="st2" points="37.2,180.1 171.7,79.8 332.5,208.6 134.5,268.1 			"/>
		</g>
	</g>
</g>
<g id="Layer_3">
</g>
</svg>
